<?xml version="1.0" encoding="UTF-8" standalone="no"?>
<!-- Created with Inkscape (http://www.inkscape.org/) -->

<svg
   xmlns:dc="http://purl.org/dc/elements/1.1/"
   xmlns:cc="http://creativecommons.org/ns#"
   xmlns:rdf="http://www.w3.org/1999/02/22-rdf-syntax-ns#"
   xmlns:svg="http://www.w3.org/2000/svg"
   xmlns="http://www.w3.org/2000/svg"
   xmlns:sodipodi="http://sodipodi.sourceforge.net/DTD/sodipodi-0.dtd"
   xmlns:inkscape="http://www.inkscape.org/namespaces/inkscape"
   width="468"
   height="60"
   id="svg3453"
   version="1.1"
   inkscape:version="0.91 r13725"
   viewBox="0 0 468 60"
   sodipodi:docname="dataden-logo.svg">
  <defs
     id="defs3455">
    <clipPath
       id="clipPath3494"
       clipPathUnits="userSpaceOnUse">
      <path
         inkscape:connector-curvature="0"
         id="path3496"
         d="M 0,756 936,756 936,0 0,0 0,756 Z" />
    </clipPath>
    <clipPath
       id="clipPath3560"
       clipPathUnits="userSpaceOnUse">
      <path
         inkscape:connector-curvature="0"
         id="path3562"
         d="m 0,358.667 750,0 L 750,0 0,0 0,358.667 Z" />
    </clipPath>
  </defs>
  <sodipodi:namedview
     id="base"
     pagecolor="#ffffff"
     bordercolor="#666666"
     borderopacity="1.0"
     inkscape:pageopacity="0.0"
     inkscape:pageshadow="2"
     inkscape:zoom="2"
     inkscape:cx="167.0625"
     inkscape:cy="30"
     inkscape:document-units="px"
     inkscape:current-layer="layer1"
     showgrid="false"
     inkscape:window-width="1920"
     inkscape:window-height="1156"
     inkscape:window-x="0"
     inkscape:window-y="0"
     inkscape:window-maximized="1"
     showguides="true"
     inkscape:guide-bbox="true">
    <sodipodi:guide
       position="135,9.5"
       orientation="0,1"
       id="guide4158" />
    <sodipodi:guide
       position="453,28"
       orientation="0,1"
       id="guide4164" />
  </sodipodi:namedview>
  <metadata
     id="metadata3458">
    <rdf:RDF>
      <cc:Work
         rdf:about="">
        <dc:format>image/svg+xml</dc:format>
        <dc:type
           rdf:resource="http://purl.org/dc/dcmitype/StillImage" />
        <dc:title />
      </cc:Work>
    </rdf:RDF>
  </metadata>
  <g
     id="layer1"
     inkscape:label="Layer 1"
     inkscape:groupmode="layer">
    <g
       transform="matrix(0.25,0,0,-0.25,-17.91683,74.50053)"
       inkscape:label="ucla-std-blu-rgb"
       id="g3554"
       inkscape:export-xdpi="90.49865"
       inkscape:export-ydpi="90.49865">
      <g
         id="g3556">
        <g
           clip-path="url(#clipPath3560)"
           id="g3558">
          <g
             transform="translate(99.9668,143.5635)"
             id="g3564">
            <path
               inkscape:connector-curvature="0"
               id="path3566"
               style="fill:#3284bf;fill-opacity:1;fill-rule:nonzero;stroke:none"
               d="m 0,0 c -0.766,5.88 -0.39,14.396 -0.39,18.581 l 8.839,100.356 32.864,0 -9.005,-101.234 c -1.941,-21.913 6.652,-37.541 28.531,-37.541 22.362,0 34.183,15.893 36.134,35.32 l 9.325,103.455 32.838,0 -9.08,-102.149 C 126.393,-22.556 100.294,-52.018 58.118,-52.018 25.215,-52.018 4.024,-30.755 0,0" />
          </g>
          <g
             transform="translate(252.4585,177.5537)"
             id="g3568">
            <path
               inkscape:connector-curvature="0"
               id="path3570"
               style="fill:#3284bf;fill-opacity:1;fill-rule:nonzero;stroke:none"
               d="m 0,0 c 4.286,48.175 36.791,88.117 92.936,88.117 14.789,0 28.97,-3.363 43.146,-12.482 l -3.751,-39.801 c -12.945,17.035 -28.325,19.8 -42.532,19.8 -34.937,0 -54.1,-24.263 -56.838,-54.98 -2.651,-29.911 12.79,-54.234 46.632,-54.234 14.777,0 30.438,4.274 46.856,20.651 l -3.651,-40.857 C 106.841,-82.452 91.969,-86.389 77.009,-86.389 21.45,-86.389 -3.997,-45.103 0,0" />
          </g>
          <g
             transform="translate(414.7803,262.5)"
             id="g3572">
            <path
               inkscape:connector-curvature="0"
               id="path3574"
               style="fill:#3284bf;fill-opacity:1;fill-rule:nonzero;stroke:none"
               d="m 0,0 32.771,0 -11.966,-136.293 46.956,0 c 3.31,0 14.496,0.172 17.538,0.352 -0.175,-1.644 -2.997,-31.487 -2.997,-31.487 l -97.17,0 L 0,0 Z" />
          </g>
          <g
             transform="translate(593.9014,270.1729)"
             id="g3576">
            <path
               inkscape:connector-curvature="0"
               id="path3578"
               style="fill:#3284bf;fill-opacity:1;fill-rule:nonzero;stroke:none"
               d="m 0,0 -2.269,-0.039 -89.719,-175.062 34.822,0 12.603,26.557 63.213,0 7.905,-26.557 34.727,0 L 0,0 Z m -8.404,-70.179 c 1.082,2.379 2.055,5.315 2.436,7.039 0,0.013 0.514,0.013 0.514,0.013 0.188,-2.105 0.573,-4.613 1.252,-7.082 1.793,-7.639 14.57,-50.02 14.57,-50.02 l -41.378,0 c 0,0 22.169,48.976 22.606,50.05" />
          </g>
        </g>
      </g>
    </g>
    <text
       xml:space="preserve"
       style="font-style:normal;font-weight:normal;font-size:31.24178314px;line-height:125%;font-family:sans-serif;letter-spacing:-1.5620892px;word-spacing:0px;opacity:1;fill:#16537f;fill-opacity:1;stroke:none;stroke-width:1px;stroke-linecap:butt;stroke-linejoin:miter;stroke-opacity:1"
       x="294.27814"
       y="47.347607"
       id="text3597"
       sodipodi:linespacing="125%"
       transform="matrix(0.94978956,0,-0.0613618,1.0528648,0,0)"
       inkscape:export-xdpi="90.49865"
       inkscape:export-ydpi="90.49865"><tspan
         sodipodi:role="line"
         id="tspan3599"
         x="294.27814"
         y="47.347607"
         style="letter-spacing:-1.5620892px;fill:#16537f;fill-opacity:1"
         dx="0 -1.5620892 -1.5620892 -0.15620892 0 0 -1.5620892 -0.7810446">data den</tspan></text>
    <text
       xml:space="preserve"
       style="font-style:normal;font-weight:normal;font-size:40px;line-height:125%;font-family:sans-serif;letter-spacing:0px;word-spacing:0px;fill:#3284bf;fill-opacity:1;stroke:none;stroke-width:1px;stroke-linecap:butt;stroke-linejoin:miter;stroke-opacity:1"
       x="150"
       y="50.5"
       id="text4160"
       sodipodi:linespacing="125%"
       inkscape:export-xdpi="90.49865"
       inkscape:export-ydpi="90.49865"><tspan
         sodipodi:role="line"
         id="tspan4162"
         x="150"
         y="50.5"
         style="font-style:normal;font-variant:normal;font-weight:normal;font-stretch:normal;font-size:40px;line-height:125%;font-family:'.Times LT MM';-inkscape-font-specification:'.Times LT MM, Normal';text-align:start;writing-mode:lr-tb;text-anchor:start;fill:#3284bf;fill-opacity:1">Library</tspan></text>
  </g>
</svg>
